<?xml version="1.0" encoding="UTF-8" standalone="no"?>
<!-- Created with Inkscape (http://www.inkscape.org/) -->

<svg
   width="210mm"
   height="297mm"
   viewBox="0 0 210 297"
   version="1.1"
   id="svg5"
   xml:space="preserve"
   inkscape:version="1.2.1 (9c6d41e410, 2022-07-14)"
   sodipodi:docname="dibujo vetorizado blanco y negro 2.svg"
   xmlns:inkscape="http://www.inkscape.org/namespaces/inkscape"
   xmlns:sodipodi="http://sodipodi.sourceforge.net/DTD/sodipodi-0.dtd"
   xmlns="http://www.w3.org/2000/svg"
   xmlns:svg="http://www.w3.org/2000/svg"><sodipodi:namedview
     id="namedview7"
     pagecolor="#ffffff"
     bordercolor="#000000"
     borderopacity="0.25"
     inkscape:showpageshadow="2"
     inkscape:pageopacity="0.0"
     inkscape:pagecheckerboard="0"
     inkscape:deskcolor="#d1d1d1"
     inkscape:document-units="mm"
     showgrid="false"
     inkscape:zoom="0.52724989"
     inkscape:cx="394.49985"
     inkscape:cy="578.47334"
     inkscape:window-width="1920"
     inkscape:window-height="1017"
     inkscape:window-x="-8"
     inkscape:window-y="-8"
     inkscape:window-maximized="1"
     inkscape:current-layer="layer1" /><defs
     id="defs2" /><g
     inkscape:label="Capa 1"
     inkscape:groupmode="layer"
     id="layer1"><path
       style="fill:#000000;stroke-width:0.100059"
       d="m 65.531507,239.45305 c -1.12178,-0.15008 -1.68025,-0.5057 -2.37107,-1.50988 -0.31602,-0.45938 -0.51032,-0.63301 -0.87578,-0.7826 -0.72641,-0.29734 -1.04139,-0.4863 -1.45968,-0.87569 -0.48959,-0.45577 -1.49599,-1.92977 -1.72927,-2.53274 -0.0981,-0.25345 -0.19687,-0.46083 -0.21957,-0.46083 -0.0227,0 -0.45842,0.19889 -0.96824,0.44196 -1.11056,0.52951 -2.26246,0.78375 -3.59576,0.79362 -1.21974,0.009 -1.54294,-0.14697 -2.3732,-1.14558 -0.81053,-0.97486 -1.31847,-1.19387 -2.76495,-1.19218 -1.25738,0.001 -1.98783,0.18197 -3.28603,0.81199 -1.33171,0.64628 -1.83837,0.71379 -2.5992,0.34634 -0.41168,-0.19882 -0.71181,-0.45613 -1.15128,-0.98702 -0.32694,-0.39496 -0.99135,-1.16352 -1.47648,-1.70791 -2.01646,-2.26281 -2.70261,-3.86088 -3.64762,-8.4955 -0.34057,-1.67025 -0.37484,-1.98523 -0.37322,-3.42976 0.002,-1.78693 0.15343,-2.51957 0.79723,-3.85746 0.78084,-1.62264 1.72006,-2.62549 3.10255,-3.31273 0.37894,-0.18838 0.71681,-0.41408 0.75081,-0.50155 0.034,-0.0875 -0.0376,-0.61157 -0.15919,-1.16462 -0.26859,-1.22199 -1.91809,-11.05082 -2.3293,-13.87958 -0.82097,-5.64749 -0.88742,-8.84859 -0.24888,-11.9894 0.56187,-2.76369 1.51322,-4.62437 3.09242,-6.04825 1.86702,-1.68338 3.93323,-2.68728 7.78192,-3.78093 l 1.81278,-0.51512 0.0294,-1.38408 c 0.0318,-1.49482 -0.073,-3.35995 -0.34309,-6.1062 -0.1521,-1.54687 -0.15745,-2.05383 -0.0482,-4.57301 0.21416,-4.93926 0.42227,-6.0437 1.62038,-8.59925 l 0.41946,-0.89472 -0.16265,-0.69589 c -0.27155,-1.16174 -0.35593,-1.84279 -0.35654,-2.87764 l -6e-4,-0.98877 -0.36195,0.34259 c -0.52804,0.49981 -1.76234,2.14155 -2.35607,3.13382 -0.55985,0.93564 -1.51657,2.79212 -1.96848,3.81976 -0.15629,0.3554 -0.35109,0.72447 -0.43289,0.82016 -0.19888,0.23263 -0.6352,0.2201 -0.95394,-0.0274 -0.37352,-0.29003 -1.10903,-1.43245 -1.40646,-2.18456 -0.56887,-1.43853 -1.6575,-6.3399 -1.97687,-8.90053 -0.19302,-1.5476 -0.23241,-4.11331 -0.12054,-7.8506 0.21634,-7.22717 0.55181,-11.16538 1.32424,-15.54608 0.16754,-0.9502 0.29155,-1.74037 0.27558,-1.75595 -0.0606,-0.059 -2.26644,0.96319 -3.24133,1.50207 -0.55964,0.30934 -1.52787,0.9041 -2.15164,1.32168 -1.90292,1.27393 -2.0032,1.33039 -2.2341,1.25805 -0.11679,-0.0366 -0.27515,-0.16379 -0.35191,-0.28267 -0.23932,-0.37062 -0.007,-2.29202 0.91021,-7.52301 0.92743,-5.29016 1.36433,-7.18311 2.05356,-8.89749 0.36332,-0.90372 3.34041,-6.821593 4.07595,-8.102183 1.15187,-2.00543 2.42759,-3.69908 4.66512,-6.19346 0.57876,-0.645192 1.03196,-1.193152 1.00711,-1.217684 -0.17629,-0.174017 -5.75838,1.150534 -7.00134,1.661314 -0.94501,0.38835 -2.51979,1.322 -3.87887,2.29969 -1.10147,0.79239 -1.4296,0.90594 -1.71058,0.59201 -0.41979,-0.46903 -0.29977,-1.64715 0.37712,-3.701796 0.24342,-0.738887 0.90093,-2.993542 1.46114,-5.010344 0.56021,-2.016802 1.18695,-4.052289 1.39277,-4.523304 0.4669,-1.068517 1.09147,-2.10654 2.19012,-3.639963 0.4701,-0.656127 1.31276,-1.841631 1.87259,-2.634451 0.88365,-1.251404 1.32469,-1.744375 3.34455,-3.738326 1.41082,-1.392725 2.72311,-2.589259 3.33378,-3.039722 1.47247,-1.086174 4.16541,-2.948827 6.29435,-4.353685 1.02472,-0.676196 1.90589,-1.266254 1.95814,-1.311239 0.10115,-0.08707 -0.3077,-0.562751 -0.75917,-0.883275 -0.17625,-0.125134 -0.8611,-0.285273 -2.10385,-0.491949 -1.95531,-0.325179 -2.16889,-0.38955 -2.26293,-0.682032 -0.0884,-0.274983 -0.003,-0.439448 0.97799,-1.879277 0.94732,-1.390645 1.18606,-1.612418 2.36862,-2.200263 1.18972,-0.591409 1.58437,-0.641676 4.45385,-0.567292 2.7804,0.07208 4.33221,0.248969 6.59404,0.751665 0.71873,0.159739 1.32106,0.27634 1.33851,0.259114 0.0175,-0.01723 -0.44597,-0.768493 -1.02983,-1.669478 -1.08718,-1.67769 -1.21087,-2.000371 -0.8801,-2.295868 0.29932,-0.267393 2.11748,-1.065317 2.81413,-1.23502 0.6026,-0.146791 0.73564,-0.14548 1.82333,0.01796 2.29886,0.345439 2.92665,0.530084 6.95196,2.044707 2.17902,0.819904 3.99101,1.490735 4.02667,1.490735 0.0357,0 0.38828,-0.306876 0.78361,-0.681946 0.9141,-0.86726 2.00196,-1.404996 5.02109,-2.481967 3.95269,-1.409985 5.20418,-1.645452 10.67523,-2.008526 3.485073,-0.23128 4.192723,-0.312113 6.495763,-0.742 2.5067,-0.4679 3.59169,-0.584904 4.79837,-0.51745 1.29873,0.0726 1.58587,0.191896 1.62703,0.675994 0.0246,0.289178 -0.0396,0.439431 -0.33962,0.794601 -0.43896,0.519727 -1.20754,1.107772 -1.9017,1.455002 l -0.50105,0.250628 1.35603,0.274442 c 3.20022,0.647685 7.8002,1.814617 8.65747,2.196244 0.47081,0.209592 1.58114,0.632077 2.46738,0.938859 0.88625,0.30678 1.99987,0.750012 2.4747,0.984962 0.47485,0.234948 1.40251,0.614068 2.06146,0.842489 1.32168,0.458148 1.70203,0.659109 2.33728,1.234907 0.50771,0.460196 0.58858,0.936244 0.20419,1.202015 -0.28967,0.200284 -1.82446,0.203817 -2.9448,0.0068 -0.44108,-0.07757 -0.81261,-0.130528 -0.82563,-0.117678 -0.013,0.01285 0.23456,0.230822 0.55018,0.484381 1.5207,1.221691 6.51532,6.432113 7.93811,8.281111 1.18702,1.542577 2.05062,3.036459 2.66322,4.606883 0.57711,1.479425 0.43633,1.637804 -1.50082,1.688352 -0.98666,0.02575 -1.56143,-0.0067 -2.03029,-0.114708 -0.35972,-0.08284 -0.66804,-0.136794 -0.68515,-0.119895 -0.0463,0.04566 1.35274,1.853135 2.2834,2.950098 1.20357,1.418653 3.55743,3.873932 4.80661,5.013711 2.73019,2.491081 4.16405,3.302138 7.21088,4.078819 0.86946,0.221639 1.17925,0.255633 1.96151,0.215242 1.63001,-0.08416 2.34848,0.146149 2.34848,0.75282 0,0.38 -2.07932,2.145196 -3.68477,3.128108 -1.21431,0.743455 -2.04895,1.131395 -3.76775,1.751255 -2.12538,0.76649 -2.88122,0.94897 -4.17945,1.00897 -0.60929,0.0282 -1.34525,0.0748 -1.63546,0.10372 l -0.52764,0.0525 0.42181,0.61431 c 1.04002,1.51466 2.67046,2.73747 6.14736,4.61045 2.338,1.259473 3.00988,1.666683 6.16845,3.738573 2.56587,1.68312 2.68178,1.77013 3.85214,2.89155 0.79942,0.76599 0.93157,0.93857 0.93157,1.2166 0,0.3496 -0.28784,0.63351 -0.64227,0.63351 -0.10704,0 -0.68527,0.15658 -1.28495,0.34795 -1.25384,0.40012 -1.98199,0.44137 -3.59119,0.20343 -0.53755,-0.0795 -1.46083,-0.2152 -2.05175,-0.30161 -0.5909,-0.0864 -1.45058,-0.26507 -1.91039,-0.39703 -0.45981,-0.13195 -0.85484,-0.22134 -0.87784,-0.19864 -0.023,0.0227 0.0169,0.18811 0.0886,0.36757 0.21796,0.54534 2.55841,5.15188 3.87819,7.63315 1.65989,3.12068 2.24085,4.87675 2.77807,8.39729 0.22856,1.49782 0.27971,4.28339 0.0982,5.34843 -0.29046,1.70446 -1.01358,3.12752 -1.84786,3.6365 -0.40782,0.2488 -1.06155,0.28168 -1.46489,0.0737 -0.60952,-0.31434 -1.3151,-1.33165 -1.97977,-2.85445 -0.23764,-0.54448 -0.46673,-1.02168 -0.50905,-1.06046 -0.0423,-0.0388 -0.0501,0.32251 -0.0173,0.80284 0.13355,1.95538 -0.18809,6.56023 -0.64378,9.21711 -0.26098,1.52159 -1.10717,4.88062 -1.55455,6.1709 -0.53455,1.54173 -1.44659,3.27996 -2.33766,4.45535 l -0.78303,1.03286 0.713,0.71252 c 0.91628,0.9157 3.00453,3.67426 3.97034,5.24482 0.8874,1.44306 2.11155,3.81343 2.67204,5.17398 0.21959,0.53307 0.4299,0.95806 0.46733,0.94443 0.0374,-0.0136 0.37732,-0.43531 0.75532,-0.93706 1.1389,-1.51174 2.76804,-3.21056 5.42062,-5.65243 3.74755,-3.44987 11.16737,-10.85916 13.40644,-13.38741 4.15495,-4.69156 5.90273,-7.76648 6.6,-11.61161 0.26362,-1.45368 0.36041,-4.82609 0.19546,-6.80981 -0.20848,-2.50706 -1.13297,-8.98634 -1.47141,-10.31226 -0.29769,-1.16626 -0.98056,-3.10322 -2.11229,-5.99151 -0.62131,-1.58565 -1.20678,-3.11441 -1.30104,-3.39726 -0.0943,-0.28285 -0.22555,-0.55525 -0.29176,-0.60533 -0.0662,-0.0501 -0.49653,-0.23841 -0.95627,-0.41849 -1.02229,-0.40043 -1.70461,-0.82869 -2.90657,-1.82432 -1.8212,-1.50858 -2.66565,-2.593403 -3.40794,-4.377963 -0.65813,-1.58223 -0.76001,-2.14851 -0.86897,-4.82995 -0.12103,-2.978655 -0.0985,-3.219138 0.82062,-8.779875 l 0.70977,-4.293818 0.5052,-0.897026 c 0.68323,-1.213138 1.40086,-2.689578 2.62003,-5.390437 1.13656,-2.517869 2.14547,-4.561211 2.38313,-4.826585 0.0967,-0.108006 0.30048,-0.173973 0.53734,-0.173973 0.53877,0 0.69491,0.256 0.69566,1.14052 0.001,1.5083 0.52872,3.620763 1.36586,5.470463 l 0.17997,0.397653 0.13293,-0.89472 c 0.18616,-1.25301 0.46514,-2.098117 0.92023,-2.7877 0.52413,-0.794202 0.73045,-0.961504 1.13753,-0.922436 0.24736,0.02374 0.37832,0.110741 0.51444,0.341744 0.32,0.543078 0.65685,1.631705 1.08909,3.519804 0.6681,2.918307 2.15254,6.831936 3.3708,8.886892 0.38891,0.656017 0.91874,2.107334 1.42406,3.900836 0.40961,1.45377 0.47777,1.831935 0.51684,2.867571 0.0689,1.826697 -0.26252,3.287897 -1.30705,5.762147 -0.89113,2.11086 -1.64825,3.456873 -2.66182,4.732143 -0.24171,0.30413 -0.43947,0.60577 -0.43947,0.67031 0,0.0645 0.31377,0.93411 0.69727,1.93237 0.3835,0.99827 1.06373,2.76927 1.51161,3.93557 1.50835,3.92774 2.01586,6.12664 2.32013,10.0526 0.48375,6.24158 -0.73945,15.71183 -2.66503,20.63324 -1.75021,4.4732 -5.38914,10.14508 -9.46414,14.75142 -0.6074,0.6866 -1.80836,1.96589 -2.66881,2.84286 -0.86043,0.87697 -2.9211,3.07033 -4.57926,4.87412 -4.53961,4.93833 -7.81144,8.07811 -9.94889,9.54732 -0.34993,0.24054 -0.55756,0.45086 -0.53517,0.54213 0.0201,0.082 0.0643,0.31164 0.0981,0.51026 l 0.0615,0.36116 0.97956,0.0655 c 3.13215,0.20933 3.87999,0.52356 6.63939,2.78975 2.64748,2.1743 3.79907,3.55452 4.78442,5.73431 0.92749,2.05178 1.42276,3.90193 1.58679,5.92767 0.11999,1.4817 0.0184,2.59683 -0.43664,4.79227 -1.09198,5.26872 -3.06662,10.61134 -6.16334,16.67565 l -1.12904,2.21101 0.41709,0.10574 c 0.2294,0.0582 0.82497,0.23556 1.32348,0.39422 0.49852,0.15867 1.2916,0.38337 1.76242,0.49934 2.94882,0.7263 4.31276,1.92005 4.93724,4.32117 0.27124,1.04289 0.38318,3.71827 0.20572,4.9163 -0.17213,1.16205 -0.39472,1.68405 -1.2988,3.04583 -1.79806,2.70834 -2.73019,3.45802 -6.03256,4.8518 -2.02334,0.85396 -2.71309,1.057 -3.8224,1.12521 -1.35372,0.0832 -2.44628,-0.16307 -4.80172,-1.08245 -0.54634,-0.21324 -1.68386,-0.61178 -2.52783,-0.88563 -1.81692,-0.58957 -2.38324,-0.90202 -3.785,-2.08826 -0.57901,-0.48999 -1.32643,-1.02548 -1.66093,-1.18996 -1.21946,-0.59963 -2.87867,-0.60213 -4.06547,-0.006 -0.55498,0.27872 -0.56278,0.28868 -0.53095,0.67862 0.0563,0.6897 -0.17502,2.6554 -0.42855,3.64197 -0.62,2.41268 -2.09181,4.48616 -3.57236,5.03271 -0.5333,0.19688 -0.66259,0.30195 -1.10058,0.89453 -0.91815,1.2422 -1.48697,1.49688 -3.33089,1.4914 -1.41074,-0.004 -2.32069,-0.15472 -3.8119,-0.63059 -0.62058,-0.19804 -1.29125,-0.36007 -1.49038,-0.36007 -0.19912,0 -0.86842,0.19449 -1.48733,0.43221 -0.6189,0.23771 -1.29669,0.45881 -1.50617,0.49133 -0.91893,0.14265 -2.21407,-0.31684 -3.99998,-1.41911 -1.62604,-1.00358 -2.65377,-1.89303 -3.49817,-3.02747 -0.24669,-0.33143 -0.45994,-0.61437 -0.47389,-0.62875 -0.0139,-0.0144 -0.20228,0.11321 -0.4185,0.28354 -1.07528,0.84695 -2.39258,1.28831 -5.32794,1.78511 -4.21397,0.7132 -5.48277,0.50226 -7.367063,-1.22486 l -0.3174,-0.29092 -0.42453,0.84572 c -1.05943,2.11049 -2.9563,3.93741 -4.6162,4.44596 -1.01398,0.31065 -2.39504,0.26682 -4.91529,-0.15598 -1.15423,-0.19364 -2.37052,-0.42327 -2.70286,-0.51029 -0.85343,-0.22346 -2.35009,-0.9309 -2.80675,-1.32669 -0.32746,-0.28382 -0.39958,-0.31106 -0.47433,-0.1792 -0.26481,0.46709 -1.09262,1.44111 -1.66417,1.95809 -1.06597,0.9642 -3.37965,2.4027 -4.52146,2.81117 -1.02404,0.36633 -1.78041,0.30521 -3.21916,-0.26014 -1.4139,-0.55559 -1.52862,-0.55612 -3.23121,-0.0151 -1.60278,0.50935 -3.3171,0.71962 -4.53675,0.55646 z m 2.5275,-1.58605 c 0.33235,-0.0526 1.13724,-0.26164 1.78867,-0.46458 0.97579,-0.30401 1.17494,-0.39843 1.13067,-0.5361 -0.42631,-1.32589 -0.56957,-3.90536 -0.30413,-5.476 0.18498,-1.09452 0.57257,-2.41031 0.79326,-2.69296 0.52765,-0.67579 1.56666,-0.19074 1.26563,0.59084 -0.25667,0.66639 -0.5954,2.18654 -0.69,3.09655 -0.12245,1.17784 -0.0115,2.58576 0.29992,3.80512 l 0.21182,0.82944 1.17621,0.44598 c 1.46864,0.55685 1.7732,0.55845 2.88231,0.0152 2.01562,-0.98732 3.80959,-2.40872 4.68299,-3.71042 0.38021,-0.56666 0.4158,-0.67146 0.36509,-1.07522 -0.2378,-1.89343 -0.25737,-2.28602 -0.158,-3.16969 0.0577,-0.51308 0.15503,-1.12936 0.21629,-1.36951 0.16613,-0.65128 0.6897,-0.97573 1.23887,-0.76772 0.32686,0.12382 0.36577,0.391 0.19662,1.35029 -0.23773,1.34818 -0.16035,3.29377 0.15076,3.79067 0.51581,0.82385 1.69747,1.56775 3.02692,1.90555 0.35734,0.0908 1.55831,0.32201 2.66881,0.51381 1.66449,0.2875 2.20482,0.34238 3.07655,0.31255 0.94554,-0.0324 1.11531,-0.0675 1.60408,-0.33179 0.75141,-0.40633 2.02136,-1.61035 2.59153,-2.45697 0.26043,-0.3867 0.64249,-1.08751 0.84902,-1.55736 l 0.37552,-0.85428 -0.19655,-0.29824 c -0.3966,-0.60179 -1.1015,-2.05436 -1.34638,-2.77447 -0.18914,-0.55619 -0.25167,-0.94804 -0.25167,-1.57722 v -0.83716 l -0.56117,-0.88504 c -0.80356,-1.26729 -1.59022,-2.25351 -2.29805,-2.88101 -0.599,-0.531 -2.0265,-1.33437 -2.37106,-1.33437 -0.39622,0 -1.24241,-0.32796 -1.56289,-0.60572 -0.44208,-0.38315 -0.52258,-0.65529 -0.65898,-2.22756 -0.0617,-0.71081 -0.22042,-1.7621 -0.3528,-2.33621 -0.32103,-1.39232 -0.51709,-2.9005 -0.70433,-5.41803 -0.18711,-2.51574 -0.55049,-5.3134 -1.01583,-7.82071 l -0.34444,-1.85592 v -8.49578 -8.49577 l -0.67979,-0.58 c -0.37388,-0.319 -2.44724,-2.30585 -4.60746,-4.41523 -2.16023,-2.10937 -4.40354,-4.21751 -4.98513,-4.68475 -1.02176,-0.82085 -2.63224,-1.97565 -2.75522,-1.97565 -0.163,0 1.59844,4.51569 2.59271,6.64678 0.36633,0.78517 0.66605,1.51213 0.66605,1.61546 0,0.10334 -0.0953,0.28194 -0.21173,0.39689 -0.1852,0.18281 -0.28303,0.20044 -0.7805,0.14061 -0.50145,-0.0603 -1.73329,-0.32079 -2.41871,-0.51145 l -0.23859,-0.0664 0.0622,15.4486 c 0.0342,8.49673 0.0902,17.22009 0.1244,19.38525 0.0454,2.87168 0.031,3.99417 -0.0531,4.14933 -0.18101,0.33386 -0.50737,0.34813 -1.37372,0.06 -2.62675,-0.87343 -5.61599,0.0819 -8.16445,2.60928 -1.6187,1.60531 -2.61731,3.45655 -3.12706,5.797 -0.27378,1.25703 -0.25043,4.22825 0.0414,5.2689 0.62332,2.22271 1.67278,3.80206 2.80277,4.21796 0.70285,0.25869 1.08996,0.57319 1.66324,1.35123 0.28816,0.39107 0.61664,0.72097 0.77465,0.77799 0.35765,0.12905 2.12129,0.13999 2.89279,0.018 z m 61.627453,-3.62202 c 0.221,-0.0911 0.48363,-0.3499 0.75391,-0.7428 0.51014,-0.74153 0.88734,-1.04589 1.72252,-1.38989 0.79672,-0.32815 1.40125,-1.01458 2.06974,-2.35015 0.78222,-1.56279 1.11272,-3.49694 0.94692,-5.5417 -0.25271,-3.11666 -1.48228,-5.6908 -3.69081,-7.72676 -2.49282,-2.29806 -5.34168,-3.10902 -7.86987,-2.24027 -0.44327,0.15232 -0.87538,0.25065 -0.96024,0.21851 -0.47777,-0.18098 -0.45541,0.43858 -0.53091,-14.70913 -0.057,-11.43049 -0.0958,-14.18985 -0.19972,-14.18985 -0.0709,0 -0.76793,0.15488 -1.54888,0.34416 -1.50171,0.36399 -3.68817,0.74712 -5.69152,0.99731 -1.27064,0.15869 -5.36017,0.54738 -5.75911,0.54738 h -0.23312 l -10e-4,4.8464 c 0,3.84101 -0.0325,5.05263 -0.15424,5.84053 -0.51468,3.33017 -0.67681,4.63987 -0.85532,6.90922 -0.22793,2.89746 -0.4139,4.36053 -0.70766,5.56715 -0.11313,0.46475 -0.27183,1.49368 -0.35264,2.2865 -0.17561,1.72281 -0.25372,1.98659 -0.7038,2.37668 -0.31557,0.27352 -1.16492,0.60561 -1.54937,0.6058 -0.30288,0 -1.44859,0.60422 -2.06641,1.08951 -1.14962,0.903 -2.12801,2.21933 -3.625383,4.87757 -1.48851,2.6425 -1.68125,3.38664 -1.22533,4.73091 0.53639,1.58154 1.55844,3.09211 2.746763,4.05968 1.43056,1.16481 2.19599,1.27193 5.38197,0.75331 2.39191,-0.38938 3.3787,-0.62625 4.18362,-1.00429 0.6957,-0.32675 1.57706,-1.06072 1.81181,-1.50882 0.21684,-0.41392 0.33529,-1.85763 0.2304,-2.80809 -0.23085,-2.09176 -0.22858,-1.98889 -0.0477,-2.16745 0.25532,-0.25203 0.78214,-0.2153 1.0572,0.0737 0.50617,0.53185 0.73599,2.70219 0.46853,4.42461 l -0.16125,1.03851 0.32761,0.55211 c 0.73468,1.2381 2.6848,2.83151 4.70574,3.84498 1.10951,0.55641 1.59049,0.56426 2.88814,0.0472 0.56224,-0.22405 1.06887,-0.40736 1.12583,-0.40736 0.10825,0 0.31219,-0.62757 0.53305,-1.64032 0.16851,-0.77274 0.16852,-3.30314 2e-5,-4.07594 -0.0715,-0.32807 -0.24125,-0.96222 -0.37714,-1.40923 -0.14667,-0.48247 -0.2214,-0.91378 -0.18387,-1.06137 0.0962,-0.37832 0.38042,-0.5801 0.76583,-0.54364 0.28654,0.0271 0.3699,0.0985 0.55932,0.4792 0.85742,1.72322 1.10872,5.10625 0.55364,7.45365 l -0.17574,0.74324 1.00898,0.33142 c 0.55494,0.18229 1.32621,0.39181 1.71394,0.4656 0.96621,0.18388 2.68261,0.19062 3.11512,0.0122 z m -73.662253,-1.41191 c 0.36003,-0.0795 1.01716,-0.33624 1.46029,-0.57046 0.92958,-0.49134 0.86751,-0.27588 0.66661,-2.31418 -0.37015,-3.75531 0.90883,-7.56961 3.43039,-10.23047 l 0.60178,-0.63502 -0.3055,-0.37667 c -0.51402,-0.63377 -1.28966,-1.98025 -2.2213,-3.85612 -1.51374,-3.04792 -1.90591,-4.15374 -3.41989,-9.64309 -1.25708,-4.55787 -1.76857,-6.60977 -2.27988,-9.14602 -0.55561,-2.75593 -0.69245,-3.8014 -0.94985,-7.25717 -0.23331,-3.13216 -0.36223,-4.17167 -0.86166,-6.94725 -0.49371,-2.74381 -0.6331,-3.71582 -0.74962,-5.22719 -0.0563,-0.72973 -0.11795,-1.34224 -0.13709,-1.36114 -0.0589,-0.0581 -3.00082,0.81411 -4.03242,1.19558 -3.07365,1.13659 -5.10844,2.68089 -6.10775,4.63547 -1.04599,2.04587 -1.60826,5.21808 -1.46976,8.29199 0.0744,1.65111 0.27167,3.65698 0.57287,5.8247 0.30955,2.22788 2.18709,13.46419 2.41072,14.42723 0.25303,1.08959 0.25301,1.68071 -5e-5,2.17037 -0.22593,0.43716 -0.45692,0.61515 -1.48207,1.14202 -0.84219,0.43284 -1.25388,0.80065 -1.79213,1.60111 -1.36428,2.02892 -1.54943,3.86691 -0.77061,7.64997 0.72921,3.5421 1.36534,5.22062 2.50543,6.61099 1.24132,1.51382 2.81052,3.23097 2.98245,3.26365 0.0974,0.0185 0.70862,-0.21644 1.35823,-0.52212 1.18946,-0.55973 2.21283,-0.84777 3.02332,-0.85095 0.40747,-0.002 0.43476,-0.0181 0.38077,-0.2305 -0.33205,-1.30596 -0.61189,-4.84656 -0.52407,-6.63075 0.10919,-2.21845 0.46823,-4.87275 0.75975,-5.61667 0.27025,-0.68965 0.82008,-0.86531 1.20328,-0.38442 0.26495,0.3325 0.26211,0.48512 -0.042,2.25723 -0.46813,2.72783 -0.50732,6.1692 -0.10093,8.86365 0.28058,1.86032 0.22692,1.73931 0.85696,1.9326 0.97851,0.30021 1.40048,0.59935 2.09686,1.48654 0.24063,0.30657 0.51268,0.58999 0.60456,0.62985 0.2248,0.0975 1.52458,-0.004 2.33232,-0.18276 z m 99.006683,-5.10046 c 1.1693,-0.29832 2.5084,-0.88949 2.60951,-1.15201 0.0472,-0.12252 0.13837,-0.57769 0.20263,-1.01151 0.28084,-1.89591 -0.5418,-3.90435 -2.08438,-5.08895 -1.09817,-0.84332 -1.21424,-1.05872 -0.83022,-1.54063 0.2985,-0.37461 0.66059,-0.33763 1.38783,0.14175 0.89873,0.59241 1.75959,1.57229 2.27607,2.59074 0.57875,1.14121 0.7831,2.06315 0.74182,3.34686 l -0.0322,1.00065 0.40284,-0.21528 c 1.02412,-0.54728 3.14461,-3.05871 3.78025,-4.47718 0.31385,-0.70037 0.43102,-1.76927 0.36671,-3.34538 -0.0689,-1.68897 -0.18447,-2.31232 -0.58356,-3.14823 -0.55201,-1.15622 -1.54871,-1.77791 -3.71446,-2.31691 -0.47082,-0.11717 -1.34064,-0.36644 -1.93294,-0.55394 -0.5923,-0.1875 -1.45103,-0.38222 -1.9083,-0.43272 -1.35311,-0.14944 -1.38722,-0.35357 -0.3701,-2.21516 3.62464,-6.63405 6.10868,-13.17196 7.28302,-19.16876 0.52568,-2.68437 0.26393,-5.33219 -0.79456,-8.0377 -0.98848,-2.52654 -2.0301,-3.89294 -4.55177,-5.971 -2.78625,-2.2961 -2.9192,-2.35496 -5.97314,-2.64477 l -0.64422,-0.0611 0.0625,0.57821 c 0.44365,4.10635 0.25368,7.70135 -0.63269,11.9726 -1.94413,9.36829 -2.2287,10.43926 -3.70824,13.956 -0.63348,1.5057 -2.33082,4.78557 -3.34404,6.46186 -0.74831,1.23803 -4.42855,6.88595 -4.98796,7.65482 -0.73713,1.01318 -2.28947,3.27525 -2.60074,3.78983 l -0.36816,0.60859 0.39441,0.8427 c 0.39788,0.85011 0.82721,2.13593 0.98852,2.96048 0.0963,0.49216 0.12658,0.50182 0.80422,0.25622 0.68,-0.24646 1.82754,-0.38419 2.61448,-0.31379 1.55143,0.13877 2.44124,0.55889 4.01494,1.8956 1.35376,1.14989 1.81927,1.40283 3.67175,1.99506 0.80238,0.25651 2.02211,0.68739 2.71048,0.95751 2.23527,0.87709 3.36172,1.03968 4.7497,0.68557 z m -58.521393,-5.05848 c 0,-0.15603 1.74021,-3.17006 2.39359,-4.14569 0.78821,-1.17695 2.412653,-2.82846 3.296513,-3.35143 0.58082,-0.34366 1.44567,-0.66896 2.33367,-0.87775 l 0.42019,-0.0988 0.0605,-0.66929 c 0.13408,-1.48446 0.27369,-2.46388 0.46135,-3.23659 0.27776,-1.14367 0.47273,-2.66668 0.65128,-5.08752 0.17568,-2.38174 0.35479,-3.92025 0.70938,-6.0934 0.23995,-1.47055 0.24809,-1.68445 0.24809,-6.52341 v -5.00301 l -2.03936,0.0494 c -4.10044,0.0993 -8.331343,-0.39224 -11.455733,-1.33091 -1.83023,-0.54987 -4.08058,-1.55792 -5.48868,-2.45865 l -0.70497,-0.45097 -0.0258,7.72075 -0.0258,7.72075 0.30022,1.64382 c 0.29651,1.6235 0.60295,3.57556 0.80428,5.1233 0.0569,0.43741 0.19421,1.94805 0.30514,3.35697 0.22462,2.85278 0.31284,3.52864 0.65838,5.04345 0.13096,0.57411 0.2917,1.6254 0.35721,2.33621 0.0655,0.7108 0.15951,1.34263 0.20889,1.40404 0.0494,0.0614 0.3638,0.16489 0.69871,0.22994 0.33492,0.065 0.8179,0.20668 1.07331,0.31474 1.44174,0.61005 3.16713,2.21086 4.31364,4.00219 0.27282,0.42625 0.44605,0.57457 0.44605,0.38187 z m -32.79946,-4.83211 c 1.01859,-0.75954 2.5802,-1.44234 3.90467,-1.70725 0.85223,-0.17047 2.92046,-0.16221 3.35587,0.0134 0.18754,0.0756 0.19035,0.0175 0.11116,-2.30022 -0.0447,-1.30781 -0.1086,-9.84709 -0.14204,-18.97619 l -0.0608,-16.59836 -0.87052,-0.31702 c -2.68012,-0.97605 -4.29318,-2.06208 -6.58558,-4.43389 -2.19508,-2.27113 -3.61781,-4.67202 -6.28155,-10.60025 -1.3519,-3.00867 -2.24399,-5.20346 -2.98984,-7.35574 l -0.49387,-1.42514 -0.23131,0.50132 c -0.33028,0.71584 -0.68639,2.18646 -0.80953,3.3431 -0.0582,0.54677 -0.15984,2.22437 -0.22585,3.72799 -0.11345,2.58442 -0.10794,2.85071 0.10079,4.87126 0.15314,1.48246 0.2492,3.34061 0.31349,6.0642 0.11028,4.67123 0.13408,4.90784 0.95488,9.49397 0.40524,2.26423 0.54037,3.37874 0.75624,6.23751 0.43169,5.71656 0.84054,7.81307 3.18447,16.32931 1.51545,5.50608 1.94281,6.6981 3.51855,9.81413 0.84647,1.67391 1.96854,3.55695 2.11951,3.55695 0.0279,0 0.19495,-0.10757 0.37127,-0.23906 z m 72.737933,-4.18483 c 1.01258,-1.43762 4.13011,-6.16877 4.94577,-7.5057 2.15495,-3.53209 3.69498,-6.75292 4.75345,-9.94133 0.48287,-1.45456 0.79963,-2.74584 1.57292,-6.41216 1.48587,-7.04476 1.56284,-7.56098 1.63023,-10.93546 0.0551,-2.75722 -0.0586,-4.37334 -0.47661,-6.77664 -0.75275,-4.32794 -2.70778,-9.65868 -4.88605,-13.32277 -1.43189,-2.40859 -3.35695,-4.95234 -4.59721,-6.07471 l -0.25113,-0.22727 -1.01995,1.1717 c -0.56098,0.64442 -1.32927,1.59667 -1.70732,2.11611 -0.58254,0.80039 -0.7344,0.94903 -0.99576,0.9746 -0.25898,0.0253 -0.37542,-0.045 -0.7266,-0.43881 -0.92728,-1.03989 -1.25126,-1.90187 -1.37198,-3.65025 -0.0406,-0.58833 -0.0922,-1.05155 -0.11468,-1.02941 -0.0225,0.0222 -0.19857,1.17609 -0.39139,2.56429 -0.1928,1.38821 -0.55275,3.91082 -0.79987,5.60582 -0.76663,5.25843 -0.78593,5.89999 -0.34055,11.32452 l 0.21968,2.67557 -0.28446,0.24153 c -0.27109,0.23018 -0.32748,0.23841 -1.1995,0.17506 -0.50327,-0.0366 -2.20334,-0.26441 -3.77792,-0.50633 -1.57459,-0.24192 -2.90018,-0.43986 -2.94576,-0.43986 -0.0456,0 -0.0829,1.96505 -0.0829,4.36677 v 4.36677 l 0.97299,0.66965 c 1.20677,0.83053 1.34333,0.96453 1.34333,1.31804 0,0.43854 -0.584,0.82477 -1.75537,1.16092 l -0.59114,0.16964 0.0686,13.23542 c 0.0377,7.27949 0.0947,13.4235 0.12654,13.65334 0.0568,0.40953 0.0643,0.4165 0.37455,0.34795 0.17411,-0.0385 0.95104,-0.067 1.7265,-0.0633 1.25987,0.006 1.50105,0.0361 2.26597,0.28358 2.00345,0.64814 3.9487,1.96138 5.38962,3.63852 l 0.57912,0.67407 0.82333,-1.20787 c 0.45283,-0.66431 1.13844,-1.65521 1.52356,-2.20198 z m -28.3065,-27.69557 c 4.87268,-0.29698 8.52892,-0.7706 11.83339,-1.53286 1.02472,-0.23637 2.21961,-0.48944 2.6553,-0.56237 l 0.79217,-0.13259 -1.14466,-0.76162 c -2.15697,-1.43518 -5.18139,-4.29481 -7.34297,-6.94291 -2.14809,-2.63156 -4.114,-6.62298 -4.15897,-8.44402 -0.0149,-0.60273 0,-0.64912 0.26284,-0.7953 0.25903,-0.1443 0.30512,-0.14065 0.65462,0.0519 0.20677,0.11394 0.98777,0.54653 1.73554,0.96134 3.40681,1.8898 7.49589,3.3347 11.43055,4.03906 1.01556,0.18178 3.73875,0.60591 4.92085,0.76638 l 0.48962,0.0665 -0.0616,-0.48516 c -0.16148,-1.27236 -0.37131,-4.72615 -0.37376,-6.15173 -0.003,-1.64207 0.14595,-3.21574 0.56389,-5.96479 0.13301,-0.87484 0.44862,-3.08927 0.70136,-4.92096 0.25276,-1.83169 0.50518,-3.54937 0.56097,-3.81707 0.0558,-0.2677 0.35288,-1.02822 0.66022,-1.69003 0.72703,-1.56557 0.67571,-1.47907 0.97818,-1.64862 0.2398,-0.13442 0.28631,-0.12944 0.5404,0.0578 0.46985,0.34628 0.84555,1.95862 1.03291,4.43286 0.0619,0.81787 0.15979,1.40689 0.27814,1.67427 l 0.18259,0.41248 0.54863,-0.68013 c 0.30176,-0.37408 1.11751,-1.32194 1.81278,-2.10635 2.98959,-3.37292 3.77205,-4.79352 4.78916,-8.69518 1.17444,-4.50522 1.45569,-6.9851 1.46727,-12.93751 0.008,-4.32501 0.0638,-5.18094 0.34888,-5.39145 0.25008,-0.18467 0.94793,-0.11026 1.1179,0.11918 0.0668,0.0902 0.29013,0.64115 0.49632,1.22441 1.19726,3.38674 2.08481,5.40632 2.56414,5.83453 0.18777,0.16774 0.20963,0.16818 0.38901,0.008 0.3141,-0.2806 0.72797,-1.31987 0.88925,-2.233 0.20624,-1.16768 0.12474,-3.99034 -0.16256,-5.6308 -0.46452,-2.65233 -1.0049,-4.37507 -1.93336,-6.16362 -0.36899,-0.71081 -1.3355,-2.56735 -2.14778,-4.12565 -1.66221,-3.1888 -2.27659,-4.47332 -2.82918,-5.91509 -0.47574,-1.24127 -0.5053,-1.68558 -0.13074,-1.96506 l 0.27077,-0.20203 0.9881,0.40249 c 1.89758,0.77295 2.34545,0.87883 5.80485,1.37235 1.24242,0.17724 2.01142,0.15611 2.56341,-0.0704 l 0.32596,-0.13378 -0.57999,-0.46079 c -0.63947,-0.50805 -4.63413,-3.14837 -6.21973,-4.11101 -0.5539,-0.33628 -1.50561,-0.87243 -2.1149,-1.19145 -4.68621,-2.453613 -6.61108,-4.065343 -7.87044,-6.590103 -0.49779,-0.99795 -0.51875,-1.29635 -0.1092,-1.55495 0.16186,-0.1022 0.84727,-0.17214 2.44251,-0.24924 2.42398,-0.11716 2.74633,-0.17624 4.73145,-0.867097 1.67141,-0.581684 3.50375,-1.470013 4.53194,-2.197107 l 0.80568,-0.569745 -0.50355,-0.06326 c -0.77146,-0.09691 -2.79978,-0.65663 -3.74964,-1.034719 -2.09733,-0.834826 -3.56729,-1.934857 -6.62947,-4.961127 -3.24107,-3.203054 -5.40299,-5.769532 -6.97468,-8.279846 -0.69261,-1.106243 -0.7548,-1.404107 -0.35753,-1.71257 0.37131,-0.288312 0.59389,-0.261535 1.5667,0.188472 1.07783,0.498585 1.82422,0.69789 2.88452,0.77024 l 0.83926,0.05727 -0.47358,-0.934104 c -0.96097,-1.895487 -2.31319,-3.680485 -4.44914,-5.873132 -0.70938,-0.728204 -1.92379,-1.991391 -2.69869,-2.807081 -0.77491,-0.815691 -1.90743,-1.894137 -2.51672,-2.396547 -1.29185,-1.065234 -1.92335,-1.711166 -2.39399,-2.448679 -0.4639,-0.726969 -0.60699,-1.114007 -0.53394,-1.444223 0.0612,-0.276741 0.0506,-0.283732 -0.92211,-0.60928 -0.54122,-0.18113 -1.36924,-0.503459 -1.84006,-0.716287 -0.60662,-0.274218 -1.64825,-0.577855 -3.57519,-1.042173 -4.9338,-1.188856 -6.8688,-1.56533 -8.74261,-1.700956 -0.50905,-0.03685 -1.02477,-0.103224 -1.14606,-0.147509 -0.27464,-0.100269 -0.46317,-0.697408 -0.32964,-1.044094 0.11132,-0.289022 0.21889,-0.33804 1.70834,-0.778477 0.63699,-0.188361 1.40741,-0.458638 1.71206,-0.600616 l 0.5539,-0.258142 -0.65461,0.04804 c -0.36004,0.02642 -1.47036,0.202693 -2.4674,0.391713 -2.38568,0.45229 -2.98276,0.521974 -6.495763,0.758103 -3.29841,0.221704 -4.92807,0.399635 -6.40183,0.69897 -1.32209,0.26853 -1.46509,0.311821 -4.02162,1.217565 -3.4129,1.209142 -4.4972,1.792218 -5.04325,2.711997 -0.31319,0.527539 -0.5911,0.741488 -0.96314,0.741488 -0.14931,0 -2.16727,-0.711619 -4.48435,-1.581375 -2.31708,-0.869755 -4.41681,-1.635248 -4.66607,-1.701095 -0.24926,-0.06585 -1.08284,-0.219605 -1.8524,-0.341685 -1.56137,-0.247689 -1.94966,-0.221075 -2.77135,0.18995 l -0.50307,0.251641 1.41675,2.185479 c 1.52122,2.346652 1.57731,2.498665 1.04812,2.840938 -0.226,0.146174 -0.38821,0.123961 -2.49388,-0.341516 -3.62743,-0.801878 -4.33252,-0.905605 -6.92933,-1.019401 -2.94986,-0.129267 -3.54595,-0.0879 -4.39675,0.305111 -0.35836,0.16554 -0.78543,0.395071 -0.94903,0.510068 -0.27269,0.191671 -1.1628,1.365358 -1.08349,1.428665 0.0188,0.01501 0.53108,0.101682 1.13838,0.192597 0.6073,0.09091 1.29668,0.257279 1.53194,0.369703 0.23526,0.112423 0.86004,0.608252 1.38838,1.101841 0.88105,0.823087 0.96063,0.928296 0.96063,1.269954 0,0.228942 -0.0679,0.432783 -0.17624,0.528875 -0.0969,0.086 -1.21859,0.845116 -2.49256,1.686933 -6.01763,3.976323 -7.42313,5.043679 -9.97026,7.571564 -1.76134,1.748028 -2.27195,2.323225 -3.05426,3.440638 -0.51665,0.737944 -1.34155,1.900917 -1.83312,2.584383 -1.15846,1.610691 -1.77923,2.644068 -2.17978,3.628584 -0.17797,0.437419 -0.79929,2.495274 -1.38073,4.573011 -0.58144,2.077738 -1.19295,4.169144 -1.35891,4.64757 -0.16597,0.47843 -0.28686,0.86986 -0.26865,0.86986 0.0182,0 0.43454,-0.25001 0.92518,-0.55558 1.89542,-1.180463 2.83848,-1.553915 5.7363,-2.271563 2.39401,-0.592876 4.08083,-0.895662 5.60505,-1.006106 1.16934,-0.08473 1.48563,0.03887 1.48364,0.579763 -10e-4,0.351458 -0.14484,0.532926 -2.99573,3.787416 -1.80443,2.05989 -2.75555,3.29963 -3.63261,4.73498 -0.74601,1.22087 -4.00293,7.591323 -4.45344,8.710813 -0.53953,1.34073 -1.07753,3.64925 -1.80641,7.75122 -0.83766,4.71414 -1.01831,5.92363 -0.87137,5.83399 0.0577,-0.0352 0.56033,-0.35082 1.11688,-0.70132 1.93166,-1.21654 5.56912,-2.80559 6.42218,-2.80559 0.30466,0 0.60873,0.31192 0.60248,0.61804 -0.003,0.12483 -0.16354,1.00985 -0.35775,1.9667 -0.8096,3.98865 -1.24742,8.1547 -1.47835,14.06698 -0.14082,3.60544 -0.14228,8.78784 -0.003,9.99104 0.33064,2.85231 1.56189,8.2566 2.09556,9.19792 0.0819,0.14448 0.24245,-0.0991 0.89288,-1.35452 1.67153,-3.22634 3.59558,-5.57757 5.71741,-6.98677 0.48196,-0.32009 0.58116,-0.32243 0.9349,-0.0221 l 0.28039,0.23807 -0.18109,1.02945 c -0.37161,2.11249 -0.3222,3.58192 0.17553,5.22037 0.37554,1.23622 2.04052,5.81905 2.649,7.2913 0.96528,2.33559 3.03427,6.85179 3.86619,8.43916 1.42749,2.72375 2.49953,4.17827 4.45292,6.0416 1.84864,1.76342 2.88991,2.43029 5.08562,3.25707 1.08247,0.40759 3.08894,1.05128 3.27701,1.05128 0.0975,0 -0.0198,-0.36622 -0.38997,-1.21782 -1.27041,-2.92272 -2.70816,-7.1261 -2.64829,-7.74246 0.0247,-0.25401 0.10199,-0.36625 0.32445,-0.47101 0.34022,-0.16021 0.60234,-0.0586 2.07463,0.80437 2.50957,1.47095 3.91419,2.65733 8.86245,7.48545 4.82924,4.712 6.04043,5.7222 8.2666,6.89482 1.88277,0.99174 4.32062,1.79871 6.78127,2.24474 3.373523,0.6115 6.434343,0.73272 11.187003,0.44306 z M 92.128627,157.87227 c -3.23555,-0.36408 -5.36884,-0.96549 -8.05678,-2.27133 -2.78297,-1.35202 -5.05052,-2.98776 -7.50576,-5.41445 -4.65408,-4.59993 -8.31669,-10.92406 -10.56776,-18.24701 -0.74926,-2.43744 -1.53873,-5.8125 -1.77363,-7.58249 -0.0383,-0.28829 -0.10683,-0.54689 -0.15238,-0.57468 -0.0456,-0.0278 -0.62803,0.21926 -1.2944,0.549 -1.1372,0.56272 -1.61704,0.69637 -1.87939,0.52345 -0.12892,-0.085 -0.34239,-0.46258 -0.34239,-0.60565 0,-0.30653 0.64243,-0.7774 1.92799,-1.41312 0.76749,-0.37952 1.39543,-0.70785 1.39543,-0.72961 0,-0.0218 -0.0647,-0.63658 -0.14368,-1.36627 -0.079,-0.72969 -0.17456,-1.78525 -0.21229,-2.34569 l -0.0686,-1.01899 h -0.28051 c -0.15428,0 -0.90849,0.0639 -1.67603,0.14195 -2.58233,0.26266 -3.00759,0.23698 -3.11569,-0.18817 -0.21187,-0.83328 0.11063,-0.98581 2.62364,-1.24087 1.10604,-0.11226 2.08445,-0.20411 2.17425,-0.20411 0.14487,0 0.17058,-0.2997 0.22814,-2.6593 0.0357,-1.46262 0.11166,-3.16926 0.16886,-3.79254 0.0572,-0.62327 0.0919,-1.14395 0.0771,-1.15706 -0.0148,-0.0131 -1.18259,-0.12152 -2.59504,-0.24091 -2.05179,-0.17344 -2.61871,-0.25262 -2.81987,-0.39382 -0.4659,-0.32704 -0.34659,-0.91131 0.2347,-1.14934 0.26844,-0.10992 0.67155,-0.10133 2.53482,0.054 1.21858,0.10161 2.35234,0.20903 2.51946,0.23869 l 0.30385,0.054 0.17344,-1.28012 c 0.64285,-4.74489 2.12188,-10.070353 3.99078,-14.369367 0.44961,-1.034233 0.81747,-1.910547 0.81747,-1.947365 0,-0.03682 -0.37389,-0.360208 -0.83086,-0.718643 -2.4426,-1.91591 -4.39394,-4.254263 -5.57721,-6.683346 -1.61311,-3.311481 -1.35761,-6.322162 0.7097,-8.362763 1.12157,-1.107076 2.50425,-1.762255 4.41062,-2.089964 1.39576,-0.239933 4.23951,-0.144105 5.87004,0.197807 2.27864,0.477819 4.08433,1.105709 6.32938,2.200898 l 1.49532,0.729454 0.71306,-0.451178 c 0.86596,-0.547923 2.77006,-1.50098 3.79917,-1.901602 6.34805,-2.471215 12.98277,-2.023523 19.056663,1.28589 l 1.07999,0.588438 0.78313,-0.387379 c 1.79635,-0.888548 4.03165,-1.643295 6.27184,-2.117671 0.91921,-0.19465 1.35368,-0.223964 3.32342,-0.224232 2.13289,-2.99e-4 2.32323,0.01504 3.24102,0.261071 2.21895,0.594832 3.8087,1.763318 4.64603,3.414889 0.42243,0.833241 0.60056,1.676119 0.59726,2.826181 -0.004,1.448657 -0.33037,2.64544 -1.17876,4.324477 -0.86694,1.71576 -1.96339,3.15502 -3.68566,4.838008 l -1.39025,1.358543 0.73528,1.574148 c 1.23211,2.637793 2.14131,5.079233 2.97146,7.979143 0.22582,0.78888 0.42202,1.44561 0.43599,1.4594 0.014,0.0138 0.93118,-0.37625 2.03825,-0.86676 2.55889,-1.13378 2.79078,-1.21281 3.12183,-1.06392 0.47292,0.2127 0.45791,0.9186 -0.0266,1.2523 -0.15219,0.10482 -1.27373,0.62838 -2.49232,1.16348 -1.21859,0.535093 -2.23435,0.988993 -2.25726,1.008663 -0.0229,0.0197 0.0819,0.6632 0.23283,1.43007 0.31634,1.60708 0.71643,4.2569 0.81862,5.42185 l 0.0703,0.80101 0.94675,-0.11974 c 2.01329,-0.25464 2.53904,-0.27311 2.80872,-0.0987 0.51238,0.33141 0.22978,1.1572 -0.44311,1.29482 -0.28495,0.0583 -2.79336,0.35131 -3.01994,0.35279 -0.11474,7.9e-4 -0.12572,0.31675 -0.0648,1.8649 0.0403,1.0252 0.0949,1.88636 0.12131,1.9137 0.0264,0.0273 1.55882,0.0721 3.40545,0.0994 l 3.35751,0.0497 0.25971,0.24101 c 0.35631,0.33066 0.35716,0.83463 0.002,1.06448 -0.23324,0.15085 -0.5849,0.16131 -3.67591,0.10931 l -3.418,-0.0575 v 0.37902 c 0,2.01232 -0.44076,6.48881 -0.90869,9.22899 -1.78308,10.44175 -6.41808,19.85768 -12.71441,25.82913 -1.48619,1.40951 -2.50477,2.21864 -4.20253,3.33838 -3.16024,2.08432 -6.698993,3.39914 -10.253163,3.80954 -1.13729,0.13133 -3.37824,0.17597 -4.19867,0.0837 z m 4.48888,-1.68131 c 6.261953,-0.86215 12.105603,-4.64416 16.798823,-10.8722 2.56242,-3.40041 4.96436,-8.08093 6.50163,-12.6693 1.64002,-4.89501 2.63577,-10.42259 2.84353,-15.78495 l 0.0641,-1.65417 -1.34983,-0.0592 c -0.7424,-0.0326 -3.43452,-0.0851 -5.98248,-0.11675 -4.23297,-0.0526 -4.65436,-0.0729 -4.88441,-0.23536 -0.37792,-0.26686 -0.47512,-0.63027 -0.25663,-0.95942 l 0.1796,-0.27058 6.14631,0.073 6.14632,0.073 -0.0533,-1.75354 c -0.0293,-0.96445 -0.0764,-1.77634 -0.10463,-1.80419 -0.0282,-0.0279 -3.60246,0.35793 -7.94277,0.85729 -4.34032,0.49936 -8.09151,0.91177 -8.33596,0.91647 -0.36459,0.007 -0.48673,-0.04 -0.67978,-0.26151 -0.28077,-0.32221 -0.29725,-0.55919 -0.0591,-0.84926 0.16413,-0.19989 0.61244,-0.26497 6.52096,-0.94655 3.48959,-0.40254 7.26283,-0.83399 8.38498,-0.95878 l 2.04025,-0.22688 -0.0588,-0.50276 c -0.31223,-2.6706 -0.81818,-5.86121 -1.02833,-6.48483 -0.0693,-0.20554 -0.51122,-0.0219 -9.036,3.75483 -4.92973,2.18401 -9.12811,3.99734 -9.32972,4.02962 -0.28973,0.0464 -0.41111,0.0147 -0.57908,-0.1511 -0.2655,-0.26208 -0.2742,-0.72034 -0.018,-0.94919 0.10697,-0.0956 4.333,-2.00792 9.39118,-4.24967 5.05817,-2.24175 9.20324,-4.08296 9.21126,-4.09157 0.0323,-0.0346 -0.86736,-3.088123 -1.22263,-4.149803 -0.76989,-2.30084 -1.70371,-4.548351 -2.73226,-6.575987 -0.2977,-0.58687 -0.54128,-1.176473 -0.54128,-1.31023 0,-0.184626 0.2511,-0.458974 1.04267,-1.1392 2.01763,-1.733827 3.52136,-3.566124 4.4569,-5.430728 1.19035,-2.37245 1.3566,-4.284427 0.50954,-5.860051 -0.65669,-1.221519 -1.8925,-2.064045 -3.74314,-2.551922 -1.09612,-0.288968 -3.74888,-0.312541 -5.23614,-0.04653 -2.27121,0.406228 -4.44248,1.128725 -6.59591,2.194804 -0.60819,0.30109 -1.17942,0.547436 -1.26942,0.547436 -0.09,0 -0.68186,-0.29372 -1.31525,-0.652711 -1.5366,-0.870914 -2.63985,-1.363319 -4.21457,-1.881063 -6.161803,-2.025911 -12.586443,-1.081584 -18.290083,2.688371 -0.69859,0.461744 -1.34091,0.839536 -1.42739,0.839536 -0.0865,0 -0.29667,-0.115817 -0.46709,-0.25737 -0.23402,-0.194376 -0.30986,-0.340023 -0.30986,-0.595049 0,-0.311452 -0.0451,-0.360145 -0.58051,-0.626947 -1.06422,-0.530302 -2.71233,-1.189512 -3.86687,-1.54667 -3.85911,-1.193814 -7.31901,-1.235226 -9.70233,-0.116126 -3.25893,1.530252 -3.60177,5.169989 -0.87334,9.27168 1.10813,1.665855 2.50707,3.123885 4.57137,4.76445 0.64915,0.515905 1.22912,1.028091 1.28881,1.138191 0.0897,0.165476 -0.013,0.462634 -0.59214,1.713981 -2.16055,4.667835 -3.53491,9.270335 -4.38749,14.692948 -0.14244,0.90596 -0.25898,1.6927 -0.25898,1.74832 0,0.0556 0.7591,0.20258 1.68689,0.32661 2.27576,0.30422 4.78909,0.72106 7.27627,1.20679 2.35839,0.46058 6.3094,1.36082 6.57026,1.49704 0.2919,0.15244 0.49283,0.63432 0.38319,0.91898 -0.19556,0.50773 -0.32861,0.50411 -2.84735,-0.0776 -2.96655,-0.68508 -5.87515,-1.25539 -8.63804,-1.69372 -2.44353,-0.38766 -4.54221,-0.67756 -4.58177,-0.63289 -0.0812,0.0917 -0.25229,3.71061 -0.25229,5.33638 0,1.81253 0.009,1.90097 0.19461,1.90097 0.10704,0 2.67349,-0.2445 5.70323,-0.54333 5.59894,-0.55224 5.77534,-0.55847 6.00954,-0.21224 0.0407,0.0602 0.0747,0.24784 0.0755,0.41707 0.003,0.64908 0.14453,0.62056 -6.17135,1.24567 -3.16866,0.31362 -5.76193,0.57332 -5.76282,0.57712 -0.0516,0.22163 0.31613,4.17792 0.39567,4.25644 0.0268,0.0265 0.53832,-0.15425 1.1366,-0.40167 2.62597,-1.08594 7.42511,-2.52628 9.05663,-2.71811 0.44083,-0.0518 0.54758,-0.0298 0.73015,0.15037 0.53028,0.52346 0.0611,1.10497 -1.0954,1.3578 -2.8108,0.61447 -7.11722,2.00627 -9.39469,3.03628 -0.32805,0.14836 -0.33258,0.0643 0.13971,2.59215 1.77551,9.50289 5.97906,18.02135 11.67021,23.64955 4.04905,4.00427 8.58235,6.40072 13.42782,7.09837 1.30878,0.18844 4.14633,0.18848 5.5147,8e-5 z m -2.52504,-8.99473 c -1.36502,-0.15508 -3.43482,-1.05677 -4.86334,-2.11866 -4.70364,-3.49645 -8.03054,-10.9218 -9.07122,-20.24614 -0.30185,-2.70455 -0.29991,-2.61417 -0.0626,-2.91204 0.16691,-0.20947 0.30063,-0.26919 0.60272,-0.26919 0.58492,0 0.76512,0.28891 0.85155,1.36521 0.26063,3.24578 0.99479,7.15431 1.88165,10.01761 1.45947,4.71202 3.96191,8.72851 6.72487,10.79363 0.61838,0.46219 2.60892,1.53499 2.6934,1.45161 0.0208,-0.0205 -0.0739,-0.72629 -0.21039,-1.56829 -1.40025,-8.6356 -1.61841,-17.86792 -0.62638,-26.50751 l 0.12831,-1.11741 -0.35871,-0.0546 c -1.24524,-0.18941 -1.65619,-0.30176 -2.41017,-0.65891 -2.05816,-0.97493 -3.54217,-3.30096 -3.53619,-5.5426 0.006,-2.13926 1.26507,-4.37565 3.01954,-5.36219 0.42765,-0.24046 0.49964,-0.31167 0.31585,-0.31239 -0.40239,-0.002 -1.01002,-0.41428 -1.32631,-0.90083 -0.16561,-0.25476 -0.39702,-0.8376 -0.51425,-1.29519 -0.39084,-1.52567 -0.1435,-3.641923 0.54088,-4.627863 0.81429,-1.17308 2.20828,-1.06172 2.92241,0.23348 0.3832,0.69501 0.57595,1.61003 0.57768,2.742433 0.002,1.22008 -0.21378,2.17544 -0.65388,2.89688 l -0.34136,0.55959 0.37248,-0.0781 c 0.20486,-0.043 0.87604,-0.0781 1.49151,-0.0781 h 1.11903 l -0.22922,-0.29824 c -0.6881,-0.89528 -0.95479,-3.08386 -0.56243,-4.615493 0.3763,-1.4689 1.11152,-2.25002 2.04038,-2.16776 1.31586,0.11653 2.07317,1.6973 1.97661,4.125893 -0.0273,0.68756 -0.11471,1.37631 -0.2129,1.67823 -0.22284,0.68517 -0.74256,1.41962 -1.15673,1.63467 l -0.33745,0.17521 0.39478,0.19881 c 1.05871,0.53316 2.11164,1.66655 2.66264,2.86611 0.81259,1.76907 0.76844,3.59625 -0.1304,5.3961 -0.70315,1.40798 -2.17896,2.68115 -3.58171,3.0899 -0.49373,0.14387 -0.46315,0.0523 -0.67884,2.03325 -0.45768,4.20351 -0.60174,7.48327 -0.52621,11.9793 0.0761,4.52784 0.20607,6.41133 0.73075,10.58751 0.23937,1.9053 0.69742,4.86555 0.8133,5.25616 0.0509,0.17155 0.14286,0.18207 1.17751,0.13478 1.39083,-0.0636 2.05302,-0.23504 3.33792,-0.86429 1.289013,-0.63129 2.112473,-1.2519 3.308393,-2.49347 3.62431,-3.76265 6.01087,-10.22014 6.88143,-18.61966 0.2025,-1.95373 0.26448,-2.08515 0.95922,-2.0341 0.302,0.0222 0.46175,0.0969 0.59659,0.27883 0.17525,0.23652 0.17689,0.32064 0.034,1.73974 -0.71634,7.11392 -2.48583,12.91324 -5.18437,16.99128 -3.17794,4.80252 -7.123903,7.02308 -11.580393,6.51677 z M 114.15877,85.559122 c -0.12468,-0.04896 -0.30245,-0.245834 -0.39504,-0.437499 -0.2383,-0.493293 -0.0963,-0.728283 0.78983,-1.307074 0.89912,-0.587274 2.03266,-1.705 2.47716,-2.442623 0.3648,-0.605342 0.59544,-1.491229 0.49307,-1.893846 -0.21372,-0.840577 -1.09112,-1.229681 -2.57616,-1.142461 -1.12402,0.06602 -1.71097,0.225591 -3.0438,0.827526 -0.79584,0.359416 -1.01655,0.421424 -1.22353,0.343743 -0.52348,-0.196463 -0.75674,-0.91249 -0.39875,-1.224009 0.21168,-0.184205 1.31461,-0.736615 1.88299,-0.943107 0.8725,-0.316984 1.85596,-0.528469 2.72448,-0.585882 3.74176,-0.247345 5.38304,2.587457 3.3034,5.705618 -0.51355,0.769996 -1.73036,1.949973 -2.64879,2.568601 -0.85697,0.577228 -1.0645,0.656808 -1.38486,0.531013 z M 70.593607,85.03716 c -3.13802,-2.128866 -4.42536,-5.126176 -3.00141,-6.988123 1.25008,-1.634588 4.26448,-1.748575 7.32957,-0.277163 0.73143,0.351124 0.94687,0.503983 1.04715,0.742973 0.11052,0.263379 0.10131,0.334194 -0.0739,0.567952 -0.1101,0.14688 -0.31888,0.32454 -0.46396,0.3948 -0.23538,0.113993 -0.32958,0.09496 -0.87492,-0.176783 -0.33612,-0.167492 -1.02909,-0.44704 -1.53993,-0.621218 -0.82997,-0.282991 -1.05203,-0.31707 -2.08696,-0.320283 -1.01394,-0.0032 -1.2112,0.02438 -1.5841,0.221061 -0.82883,0.437151 -0.98864,1.354604 -0.4308,2.473154 0.40488,0.811839 1.60772,2.073043 2.60371,2.730055 0.42393,0.279642 0.80407,0.559586 0.84476,0.6221 0.15411,0.236726 0.0727,0.673777 -0.17012,0.913483 -0.38006,0.37517 -0.71831,0.315518 -1.59908,-0.282008 z m 51.472103,91.82689 -0.0263,-4.03646 -1.16524,-0.33374 c -2.49079,-0.71339 -4.85113,-1.62677 -6.98411,-2.70265 l -1.13763,-0.57383 0.15266,0.44228 c 0.25873,0.74956 1.27319,2.6389 1.97833,3.68446 1.31239,1.94599 3.16293,4.01065 5.54015,6.18119 0.82839,0.75637 1.54267,1.37522 1.58731,1.37522 0.0446,0 0.0693,-1.81641 0.0548,-4.03647 z m 29.32871,-8.73239 c 1.80907,-1.44595 3.78686,-3.41617 7.93952,-7.9091 1.64244,-1.77702 3.7306,-3.99145 4.64037,-4.92096 3.95749,-4.04336 6.5742,-7.36958 9.1503,-11.63135 2.03669,-3.3694 3.13648,-5.9102 3.89712,-9.00335 1.8925,-7.69589 2.17741,-16.57131 0.71289,-22.20782 -0.18535,-0.71333 -0.58127,-1.96802 -0.87981,-2.78817 -0.81985,-2.25222 -2.33784,-6.11135 -2.40445,-6.11271 -0.0323,-7e-4 -0.2227,0.23365 -0.42304,0.52071 -0.60055,0.86053 -1.09609,1.27773 -1.63586,1.37728 -0.26115,0.0482 -0.65233,0.0595 -0.8693,0.0253 l -0.39448,-0.0623 0.21525,0.53523 c 2.15306,5.35391 2.93273,7.62812 3.2651,9.5239 0.22629,1.29074 0.92298,6.03287 1.12582,7.66305 0.25956,2.08616 0.2602,7.18532 0.001,8.59925 -0.40153,2.19096 -0.99369,4.01339 -1.80502,5.55512 -1.02942,1.95616 -3.22074,4.88569 -5.73484,7.66685 -1.87445,2.07355 -9.86772,10.05317 -12.51863,12.49724 -3.73804,3.4464 -5.31022,5.13929 -6.47776,6.97515 l -0.53588,0.84264 0.30076,0.92706 c 0.16541,0.50989 0.41964,1.35206 0.56496,1.87149 0.14531,0.51944 0.2856,1.00529 0.31176,1.07966 0.0525,0.1494 0.24219,0.0244 1.55415,-1.0242 z m 21.0298,-64.3699 c 0.12041,-0.16076 0.53185,-0.75596 0.91431,-1.32266 0.38247,-0.5667 0.96635,-1.36344 1.29751,-1.77053 0.81549,-1.002453 1.33559,-1.816123 1.92645,-3.013893 1.07199,-2.17309 1.71136,-4.03285 1.92802,-5.6082 0.16551,-1.203473 0.0505,-2.014414 -0.60955,-4.296202 -0.44186,-1.527595 -0.63236,-1.994297 -1.56224,-3.827411 -1.48476,-2.926964 -2.49644,-5.791816 -3.27777,-9.281906 -0.16874,-0.753769 -0.25127,-0.975745 -0.30725,-0.826369 -0.13635,0.363844 -0.2798,1.325974 -0.43994,2.950519 -0.17234,1.748395 -0.20404,1.90757 -0.43059,2.162239 -0.15725,0.176785 -0.58957,0.230708 -0.7848,0.09789 -0.66588,-0.453021 -2.56376,-4.601696 -2.93967,-6.425989 -0.0789,-0.383067 -0.0936,-0.357651 -1.12082,1.938559 -0.87865,1.964176 -1.49954,3.220725 -2.84803,5.763884 -0.12449,0.234764 -0.43077,1.803525 -0.90257,4.622717 -0.68548,4.096058 -0.71617,4.351287 -0.76441,6.358151 -0.0867,3.606968 0.17713,5.190988 1.1821,7.097018 0.53866,1.02162 1.15859,1.736293 2.46832,2.845533 1.24924,1.05801 1.9649,1.46608 3.65345,2.08315 0.64767,0.23669 1.33619,0.49957 1.53005,0.58418 0.54571,0.23816 0.83744,0.2031 1.08743,-0.13068 z"
       id="path179" /></g></svg>
